<?xml version="1.0" encoding="UTF-8"?><svg id="Layer_1" xmlns="http://www.w3.org/2000/svg" viewBox="0 0 849 47"><defs><style>.cls-1{fill:#036;}</style></defs><path class="cls-1" d="M0,45.16V2.29H6.04l13.74,21.69c3.18,5.02,5.66,9.54,7.7,13.93l.13-.06c-.51-5.72-.64-10.94-.64-17.62V2.29h5.21V45.16h-5.6L12.97,23.4c-2.99-4.77-5.85-9.67-8.01-14.31l-.19,.06c.32,5.41,.45,10.56,.45,17.68v18.32H0Z"/><path class="cls-1" d="M51.39,5.72c.06,1.91-1.33,3.43-3.56,3.43-1.97,0-3.37-1.53-3.37-3.43s1.46-3.5,3.5-3.5,3.43,1.53,3.43,3.5Zm-6.23,39.43V14.37h5.6v30.78h-5.6Z"/><path class="cls-1" d="M62.9,0h5.6V45.16h-5.6V0Z"/><path class="cls-1" d="M86.3,28.49h.13c.76-1.08,1.84-2.42,2.73-3.5l9.03-10.62h6.74l-11.89,12.66,13.55,18.13h-6.81l-10.62-14.75-2.86,3.18v11.58h-5.53V0h5.53V28.49Z"/><path class="cls-1" d="M131.64,45.16l-.44-3.88h-.19c-1.72,2.42-5.02,4.58-9.41,4.58-6.23,0-9.41-4.39-9.41-8.84,0-7.44,6.61-11.51,18.51-11.45v-.64c0-2.54-.7-7.12-7-7.12-2.86,0-5.85,.89-8.01,2.29l-1.27-3.69c2.54-1.65,6.23-2.73,10.11-2.73,9.41,0,11.7,6.42,11.7,12.59v11.51c0,2.67,.13,5.28,.51,7.38h-5.09Zm-.83-15.71c-6.11-.13-13.04,.95-13.04,6.93,0,3.62,2.42,5.34,5.28,5.34,4.01,0,6.55-2.54,7.44-5.15,.19-.57,.32-1.21,.32-1.78v-5.34Z"/><path class="cls-1" d="M148.12,22.71c0-3.18-.06-5.79-.25-8.33h4.96l.32,5.09h.13c1.53-2.92,5.09-5.79,10.18-5.79,4.26,0,10.88,2.54,10.88,13.1v18.38h-5.6V27.41c0-4.96-1.84-9.09-7.12-9.09-3.69,0-6.55,2.61-7.5,5.72-.25,.7-.38,1.65-.38,2.61v18.51h-5.6V22.71Z"/><path class="cls-1" d="M192.76,5.53V14.37h8.01v4.26h-8.01v16.6c0,3.82,1.08,5.98,4.2,5.98,1.46,0,2.54-.19,3.24-.38l.25,4.2c-1.08,.45-2.8,.76-4.96,.76-2.61,0-4.71-.83-6.04-2.35-1.59-1.65-2.16-4.39-2.16-8.01V18.63h-4.77v-4.26h4.77V7l5.47-1.46Z"/><path class="cls-1" d="M209.93,0h5.6V19.21h.13c.89-1.59,2.29-2.99,4.01-3.94,1.65-.95,3.62-1.59,5.72-1.59,4.13,0,10.75,2.54,10.75,13.17v18.32h-5.6V27.47c0-4.96-1.84-9.16-7.12-9.16-3.62,0-6.49,2.54-7.5,5.6-.32,.76-.38,1.59-.38,2.67v18.57h-5.6V0Z"/><path class="cls-1" d="M265.14,45.16l-.44-3.88h-.19c-1.72,2.42-5.02,4.58-9.41,4.58-6.23,0-9.41-4.39-9.41-8.84,0-7.44,6.61-11.51,18.51-11.45v-.64c0-2.54-.7-7.12-7-7.12-2.86,0-5.85,.89-8.01,2.29l-1.27-3.69c2.54-1.65,6.23-2.73,10.11-2.73,9.41,0,11.7,6.42,11.7,12.59v11.51c0,2.67,.13,5.28,.51,7.38h-5.09Zm-.83-15.71c-6.11-.13-13.04,.95-13.04,6.93,0,3.62,2.42,5.34,5.28,5.34,4.01,0,6.55-2.54,7.44-5.15,.19-.57,.32-1.21,.32-1.78v-5.34Z"/><path class="cls-1" d="M334.27,26.33c-.32-5.98-.7-13.17-.64-18.51h-.19c-1.46,5.02-3.24,10.37-5.41,16.28l-7.57,20.8h-4.2l-6.93-20.42c-2.04-6.04-3.75-11.58-4.96-16.66h-.13c-.13,5.34-.45,12.53-.83,18.95l-1.14,18.38h-5.28l2.99-42.87h7.06l7.31,20.73c1.78,5.28,3.24,9.99,4.32,14.44h.19c1.08-4.33,2.61-9.03,4.51-14.44l7.63-20.73h7.06l2.67,42.87h-5.41l-1.08-18.83Z"/><path class="cls-1" d="M377.89,36.76c0,3.18,.06,5.98,.25,8.39h-4.96l-.32-5.02h-.13c-1.46,2.48-4.71,5.72-10.18,5.72-4.83,0-10.62-2.67-10.62-13.48V14.37h5.6V31.42c0,5.85,1.78,9.79,6.87,9.79,3.75,0,6.36-2.61,7.38-5.09,.32-.83,.51-1.84,.51-2.86V14.37h5.6v22.39Z"/><path class="cls-1" d="M390.04,0h5.6V45.16h-5.6V0Z"/><path class="cls-1" d="M414.65,5.53V14.37h8.01v4.26h-8.01v16.6c0,3.82,1.08,5.98,4.2,5.98,1.46,0,2.54-.19,3.24-.38l.25,4.2c-1.08,.45-2.8,.76-4.96,.76-2.61,0-4.71-.83-6.04-2.35-1.59-1.65-2.16-4.39-2.16-8.01V18.63h-4.77v-4.26h4.77V7l5.47-1.46Z"/><path class="cls-1" d="M438.06,5.72c.06,1.91-1.34,3.43-3.56,3.43-1.97,0-3.37-1.53-3.37-3.43s1.46-3.5,3.5-3.5,3.43,1.53,3.43,3.5Zm-6.23,39.43V14.37h5.6v30.78h-5.6Z"/><path class="cls-1" d="M456.31,5.53V14.37h8.01v4.26h-8.01v16.6c0,3.82,1.08,5.98,4.2,5.98,1.46,0,2.54-.19,3.24-.38l.25,4.2c-1.08,.45-2.8,.76-4.96,.76-2.61,0-4.71-.83-6.04-2.35-1.59-1.65-2.16-4.39-2.16-8.01V18.63h-4.77v-4.26h4.77V7l5.47-1.46Z"/><path class="cls-1" d="M473.48,23.98c0-3.62-.06-6.74-.25-9.6h4.9l.19,6.04h.25c1.4-4.13,4.77-6.74,8.52-6.74,.64,0,1.08,.06,1.59,.19v5.28c-.57-.13-1.14-.19-1.91-.19-3.94,0-6.74,2.99-7.5,7.19-.13,.76-.25,1.65-.25,2.61v16.41h-5.53V23.98Z"/><path class="cls-1" d="M513.86,45.16l-.45-3.88h-.19c-1.72,2.42-5.02,4.58-9.41,4.58-6.23,0-9.41-4.39-9.41-8.84,0-7.44,6.61-11.51,18.51-11.45v-.64c0-2.54-.7-7.12-7-7.12-2.86,0-5.85,.89-8.01,2.29l-1.27-3.69c2.54-1.65,6.23-2.73,10.11-2.73,9.41,0,11.7,6.42,11.7,12.59v11.51c0,2.67,.13,5.28,.51,7.38h-5.09Zm-.83-15.71c-6.11-.13-13.04,.95-13.04,6.93,0,3.62,2.42,5.34,5.28,5.34,4.01,0,6.55-2.54,7.44-5.15,.19-.57,.32-1.21,.32-1.78v-5.34Z"/><path class="cls-1" d="M556.92,0V37.21c0,2.74,.06,5.85,.25,7.95h-5.02l-.25-5.34h-.13c-1.72,3.43-5.47,6.04-10.49,6.04-7.44,0-13.17-6.3-13.17-15.65-.06-10.24,6.3-16.54,13.8-16.54,4.71,0,7.89,2.23,9.29,4.71h.13V0h5.6Zm-5.6,26.9c0-.7-.06-1.65-.25-2.35-.83-3.56-3.88-6.49-8.08-6.49-5.79,0-9.22,5.09-9.22,11.89,0,6.23,3.05,11.38,9.09,11.38,3.75,0,7.19-2.48,8.2-6.68,.19-.76,.25-1.53,.25-2.42v-5.34Z"/><path class="cls-1" d="M572.18,30.78c.13,7.57,4.96,10.68,10.56,10.68,4.01,0,6.42-.7,8.52-1.59l.95,4.01c-1.97,.89-5.34,1.91-10.24,1.91-9.48,0-15.14-6.23-15.14-15.52s5.47-16.6,14.44-16.6c10.05,0,12.72,8.84,12.72,14.5,0,1.15-.13,2.04-.19,2.61h-21.62Zm16.41-4.01c.06-3.56-1.46-9.09-7.76-9.09-5.66,0-8.14,5.21-8.59,9.09h16.34Z"/><path class="cls-1" d="M620.33,2.8c2.67-.45,6.17-.83,10.62-.83,5.47,0,9.48,1.27,12.02,3.56,2.35,2.04,3.75,5.15,3.75,8.97s-1.14,6.93-3.31,9.16c-2.93,3.12-7.7,4.71-13.1,4.71-1.65,0-3.18-.06-4.45-.38v17.17h-5.53V2.8Zm5.53,20.67c1.21,.32,2.74,.45,4.58,.45,6.68,0,10.75-3.24,10.75-9.16s-4.01-8.39-10.11-8.39c-2.42,0-4.26,.19-5.21,.44V23.47Z"/><path class="cls-1" d="M659.25,14.37l6.04,17.3c1.02,2.8,1.84,5.34,2.48,7.89h.19c.7-2.54,1.59-5.09,2.61-7.89l5.98-17.3h5.85l-12.08,30.78h-5.34l-11.7-30.78h5.98Z"/><path class="cls-1" d="M697.28,5.53V14.37h8.01v4.26h-8.01v16.6c0,3.82,1.08,5.98,4.2,5.98,1.46,0,2.54-.19,3.24-.38l.25,4.2c-1.08,.45-2.8,.76-4.96,.76-2.61,0-4.71-.83-6.04-2.35-1.59-1.65-2.16-4.39-2.16-8.01V18.63h-4.77v-4.26h4.77V7l5.47-1.46Z"/><path class="cls-1" d="M712.92,41.85c0-2.35,1.59-4.01,3.82-4.01s3.75,1.65,3.75,4.01-1.46,4.01-3.82,4.01c-2.23,0-3.75-1.72-3.75-4.01Z"/><path class="cls-1" d="M746.82,2.29h5.53V40.51h18.32v4.64h-23.85V2.29Z"/><path class="cls-1" d="M786,5.53V14.37h8.01v4.26h-8.01v16.6c0,3.82,1.08,5.98,4.2,5.98,1.46,0,2.54-.19,3.24-.38l.25,4.2c-1.08,.45-2.8,.76-4.96,.76-2.61,0-4.71-.83-6.04-2.35-1.59-1.65-2.16-4.39-2.16-8.01V18.63h-4.77v-4.26h4.77V7l5.47-1.46Z"/><path class="cls-1" d="M829.37,0V37.21c0,2.74,.06,5.85,.25,7.95h-5.02l-.25-5.34h-.13c-1.72,3.43-5.47,6.04-10.49,6.04-7.44,0-13.16-6.3-13.16-15.65-.06-10.24,6.3-16.54,13.8-16.54,4.71,0,7.89,2.23,9.29,4.71h.13V0h5.6Zm-5.6,26.9c0-.7-.06-1.65-.25-2.35-.83-3.56-3.88-6.49-8.08-6.49-5.79,0-9.22,5.09-9.22,11.89,0,6.23,3.05,11.38,9.09,11.38,3.75,0,7.19-2.48,8.2-6.68,.19-.76,.25-1.53,.25-2.42v-5.34Z"/><path class="cls-1" d="M839.54,41.85c0-2.35,1.59-4.01,3.82-4.01s3.75,1.65,3.75,4.01-1.46,4.01-3.82,4.01c-2.23,0-3.75-1.72-3.75-4.01Z"/></svg>